<svg aria-hidden="true" style="position: absolute; width: 0; height: 0; overflow: hidden;" version="1.1" xmlns="http://www.w3.org/2000/svg" xmlns:xlink="http://www.w3.org/1999/xlink">
<defs>
<symbol id="arrow-top" viewBox="0 0 32 32">
<path d="M22.113 20.8l-6.113-5.936-6.113 5.936-1.887-1.832 8-7.768 8 7.768-1.887 1.832z"></path>
</symbol>
<symbol id="facebook" viewBox="0 0 16 32">
<path d="M13.079 5.313h2.921v-5.088c-0.504-0.069-2.237-0.225-4.256-0.225-4.212 0-7.097 2.649-7.097 7.519v4.481h-4.648v5.688h4.648v14.312h5.698v-14.311h4.46l0.708-5.688h-5.169v-3.919c0.001-1.644 0.444-2.769 2.734-2.769z"></path>
</symbol>
<symbol id="twitter" viewBox="0 0 40 32">
<path d="M40 3.788c-1.488 0.642-3.072 1.068-4.725 1.275 1.7-0.999 2.997-2.57 3.607-4.463-1.585 0.93-3.335 1.588-5.2 1.954-1.505-1.578-3.65-2.555-5.99-2.555-4.54 0-8.195 3.628-8.195 8.076 0 0.64 0.055 1.255 0.19 1.841-6.817-0.327-12.85-3.545-16.902-8.446-0.708 1.209-1.123 2.592-1.123 4.081 0 2.796 1.462 5.275 3.642 6.71-1.317-0.025-2.61-0.401-3.705-0.994 0 0.025 0 0.057 0 0.089 0 3.924 2.842 7.183 6.57 7.934-0.668 0.18-1.395 0.266-2.15 0.266-0.525 0-1.055-0.030-1.553-0.138 1.063 3.198 4.077 5.548 7.662 5.625-2.79 2.149-6.332 3.444-10.168 3.444-0.672 0-1.317-0.030-1.962-0.111 3.632 2.306 7.938 3.623 12.58 3.623 15.090 0 23.34-12.308 23.34-22.976 0-0.357-0.012-0.702-0.030-1.044 1.628-1.137 2.995-2.558 4.11-4.192z"></path>
</symbol>
<symbol id="instagram" viewBox="0 0 32 32">
<path d="M10 0h12c5.522 0 10 4.478 10 10v12c0 5.522-4.478 10-10 10h-12c-5.522 0-10-4.478-10-10v-12c0-5.522 4.478-10 10-10zM23 30c3.86 0 7-3.14 7-7v-12c0-3.86-3.14-7-7-7h-12c-3.86 0-7 3.14-7 7v12c0 3.86 3.14 7 7 7h12z"></path>
<path d="M8 16c0-4.418 3.582-8 8-8s8 3.582 8 8c0 4.418-3.582 8-8 8s-8-3.582-8-8zM12 17c0 2.756 2.244 5 5 5s5-2.244 5-5c0-2.758-2.244-5-5-5s-5 2.242-5 5z"></path>
<path d="M26 7c0 0.552-0.448 1-1 1s-1-0.448-1-1c0-0.552 0.448-1 1-1s1 0.448 1 1z"></path>
</symbol>
<symbol id="arrow-right" viewBox="0 0 38 32">
<path d="M14.4 22.113l6.925-6.113-6.925-6.113 2.137-1.887 9.063 8-9.063 8-2.137-1.887z"></path>
</symbol>
<symbol id="logo" viewBox="0 0 134 32">
<path d="M3.847 3.052c0.166 0.404 0.439 1.069 0.819 1.995 0.38 0.903 0.807 1.936 1.282 3.1 0.499 1.164 1.009 2.399 1.532 3.706 0.546 1.306 1.057 2.542 1.532 3.706s0.902 2.209 1.282 3.136c0.38 0.903 0.653 1.556 0.819 1.96 0.024 0.047 0.083 0.214 0.178 0.499s0.166 0.535 0.214 0.748l0.356-1.247c0.166-0.404 0.439-1.057 0.819-1.96 0.38-0.926 0.807-1.972 1.282-3.136s0.973-2.399 1.496-3.706c0.546-1.306 1.057-2.542 1.532-3.706 0.499-1.164 0.938-2.197 1.318-3.1 0.38-0.926 0.653-1.592 0.819-1.995h3.847c-0.142 0.333-0.404 0.938-0.784 1.817-0.356 0.855-0.795 1.9-1.318 3.136s-1.104 2.589-1.745 4.062c-0.617 1.473-1.258 2.969-1.923 4.49-0.641 1.52-1.282 3.017-1.923 4.49-0.617 1.473-1.187 2.827-1.71 4.062-0.499 1.235-0.938 2.292-1.318 3.171-0.356 0.855-0.605 1.449-0.748 1.782l-11.505-27.009h3.847z"></path>
<path d="M29.791 28.885v-25.833h16.954v3.528h-13.036v7.554h11.611v3.599h-11.611v7.554h13.535v3.599h-17.453z"></path>
<path d="M55.335 28.885v-25.833h7.052c1.353 0 2.588 0.178 3.704 0.534 1.14 0.356 2.113 0.891 2.921 1.603 0.831 0.689 1.472 1.544 1.923 2.566 0.451 0.998 0.677 2.15 0.677 3.456 0 0.713-0.071 1.425-0.214 2.138-0.143 0.689-0.38 1.366-0.712 2.031-0.309 0.641-0.712 1.247-1.211 1.817-0.499 0.546-1.104 1.010-1.816 1.39 0.95 1.497 1.983 3.159 3.099 4.988 1.116 1.805 2.244 3.575 3.384 5.309h-4.666c-0.475-0.736-0.973-1.508-1.496-2.316-0.499-0.808-1.009-1.604-1.532-2.387-0.499-0.808-0.997-1.592-1.496-2.352-0.475-0.784-0.926-1.508-1.353-2.174h-4.345v9.229h-3.918zM59.253 15.986h3.526c0.95 0 1.745-0.154 2.386-0.463 0.641-0.333 1.14-0.736 1.496-1.212 0.38-0.475 0.641-0.986 0.784-1.532 0.166-0.546 0.249-1.045 0.249-1.497s-0.083-0.938-0.249-1.461c-0.142-0.546-0.404-1.045-0.784-1.497-0.38-0.475-0.89-0.867-1.532-1.176-0.617-0.309-1.389-0.463-2.315-0.463h-3.562v9.3z"></path>
<path d="M96.044 4.477l-1.389 3.171c-0.974-0.356-1.947-0.641-2.921-0.855-0.95-0.214-1.864-0.321-2.743-0.321-1.496 0-2.695 0.309-3.597 0.926-0.879 0.618-1.318 1.402-1.318 2.352 0 0.808 0.32 1.461 0.962 1.96 0.641 0.475 1.436 0.915 2.386 1.318 0.95 0.38 1.983 0.772 3.099 1.176 1.116 0.38 2.149 0.879 3.099 1.497s1.745 1.401 2.386 2.352c0.641 0.926 0.962 2.126 0.962 3.599 0 1.14-0.214 2.174-0.641 3.1-0.404 0.903-1.021 1.687-1.852 2.352-0.807 0.665-1.828 1.176-3.063 1.532-1.211 0.356-2.636 0.535-4.274 0.535-1.045 0-1.995-0.071-2.849-0.214-0.831-0.143-1.591-0.321-2.279-0.535-0.665-0.238-1.258-0.487-1.781-0.748-0.499-0.261-0.926-0.499-1.282-0.713l1.71-3.385c0.95 0.546 2.007 0.986 3.17 1.318s2.22 0.499 3.17 0.499c0.475 0 1.057-0.059 1.745-0.178 0.712-0.119 1.389-0.321 2.030-0.606 0.641-0.309 1.187-0.713 1.638-1.212 0.475-0.499 0.712-1.128 0.712-1.889 0-0.689-0.19-1.271-0.57-1.746-0.356-0.499-0.843-0.926-1.46-1.283-0.594-0.38-1.282-0.713-2.066-0.998-0.76-0.309-1.543-0.618-2.351-0.926-0.807-0.333-1.603-0.677-2.386-1.033-0.76-0.356-1.448-0.784-2.066-1.283-0.594-0.523-1.080-1.116-1.46-1.782-0.356-0.689-0.534-1.508-0.534-2.459 0-0.879 0.178-1.746 0.534-2.601s0.89-1.615 1.603-2.28c0.712-0.665 1.591-1.2 2.636-1.603 1.069-0.404 2.303-0.606 3.704-0.606 0.855 0 1.686 0.071 2.493 0.214 0.831 0.143 1.579 0.309 2.244 0.499 0.665 0.166 1.223 0.333 1.674 0.499 0.475 0.166 0.784 0.285 0.926 0.356z"></path>
<path d="M121.467 4.152l7.469 7.501c2.283 2.293 2.283 6.011 0 8.304l-7.469 7.5c-2.283 2.293-5.985 2.293-8.268 0l-7.469-7.5c-2.283-2.293-2.283-6.011 0-8.304l7.469-7.501c2.283-2.293 5.985-2.293 8.268 0zM119.105 6.525c-0.978-0.983-2.565-0.983-3.543 0l-7.469 7.501c-0.978 0.983-0.978 2.576 0 3.559l7.469 7.501c0.978 0.983 2.565 0.983 3.543 0l7.469-7.501c0.978-0.983 0.978-2.576 0-3.559l-7.469-7.501z"></path>
</symbol>
</defs>
</svg>
